<?xml version="1.0" encoding="utf-8"?>
<!-- Generator: Adobe Illustrator 17.1.0, SVG Export Plug-In . SVG Version: 6.00 Build 0)  -->
<!DOCTYPE svg PUBLIC "-//W3C//DTD SVG 1.1//EN" "http://www.w3.org/Graphics/SVG/1.1/DTD/svg11.dtd">
<svg version="1.1" id="Layer_1" xmlns="http://www.w3.org/2000/svg" xmlns:xlink="http://www.w3.org/1999/xlink" x="0px" y="0px"
	 width="47px" height="1007.5px" viewBox="0 0 47 1007.5" enable-background="new 0 0 47 1007.5" xml:space="preserve">
<g id="dots">
	<g id="gray">
		<g id="Page_1_6_">
			<path id="Oval_1_5_" fill="#767778" d="M6.4,912c3.3,0,6-2.7,6-6s-2.7-6-6-6s-6,2.7-6,6S3.1,912,6.4,912z"/>
		</g>
	</g>
	<g id="grape">
		<g id="Page_1_5_">
			<path id="Oval_1_4_" fill="#762060" d="M6.4,862c3.3,0,6-2.7,6-6s-2.7-6-6-6s-6,2.7-6,6S3.1,862,6.4,862z"/>
		</g>
	</g>
	<g id="gold">
		<g id="Page_1_4_">
			<path id="Oval_1_3_" fill="#F4AF3D" d="M6.4,812c3.3,0,6-2.7,6-6s-2.7-6-6-6s-6,2.7-6,6S3.1,812,6.4,812z"/>
		</g>
	</g>
	<g id="emerald">
		<g id="Page_1_3_">
			<path id="Oval_1_2_" fill="#2CA368" d="M6.4,762c3.3,0,6-2.7,6-6s-2.7-6-6-6s-6,2.7-6,6S3.1,762,6.4,762z"/>
		</g>
	</g>
	<g id="turquoise">
		<g id="Page_1_2_">
			<path id="Oval_1_1_" fill="#006FAF" d="M6.4,712c3.3,0,6-2.7,6-6s-2.7-6-6-6s-6,2.7-6,6S3.1,712,6.4,712z"/>
		</g>
	</g>
	<g id="salmon">
		<g id="Page_1_1_">
			<path id="Oval_1" fill="#E7735E" d="M6.4,662c3.3,0,6-2.7,6-6s-2.7-6-6-6s-6,2.7-6,6S3.1,662,6.4,662z"/>
		</g>
	</g>
</g>
<g id="mobile-nav">
	<g>
		<polygon fill="#C63D90" points="32.3,558.6 29.5,555.8 23.1,562.2 16.7,555.8 13.9,558.6 20.3,565 13.9,571.4 16.7,574.2 
			23.1,567.8 29.5,574.2 32.3,571.4 25.9,565 		"/>
		<g>
			<path fill="#FFFFFF" d="M34.4,502c0,1.1-0.9,2-2,2h-18c-1.1,0-2-0.9-2-2l0,0c0-1.1,0.9-2,2-2h18C33.5,500,34.4,500.9,34.4,502
				L34.4,502z"/>
		</g>
		<g>
			<path fill="#FFFFFF" d="M34.4,509c0,1.1-0.9,2-2,2h-18c-1.1,0-2-0.9-2-2l0,0c0-1.1,0.9-2,2-2h18C33.5,507,34.4,507.9,34.4,509
				L34.4,509z"/>
		</g>
		<g>
			<path fill="#FFFFFF" d="M34.4,516c0,1.1-0.9,2-2,2h-18c-1.1,0-2-0.9-2-2l0,0c0-1.1,0.9-2,2-2h18C33.5,514,34.4,514.9,34.4,516
				L34.4,516z"/>
		</g>
	</g>
</g>
<g id="arrows">
	<g id="arrow-left">
		<path fill="#C12581" d="M6.2,450.5l-5.7,5.7c-0.7,0.7-0.7,1.9,0,2.6l5.7,5.7c0.7,0.7,1.9,0.7,2.6,0s0.7-1.9,0-2.6l-4.4-4.4
			l4.4-4.4c0.7-0.7,0.7-1.9,0-2.6C8.1,449.8,7,449.8,6.2,450.5z"/>
	</g>
	<g id="arrow-up">
		<path fill="#C12581" d="M19.3,408l-7.5-7.3c-1-0.9-2.5-0.9-3.5,0L0.7,408c-1,0.9-1,2.4,0,3.4c1,0.9,2.5,0.9,3.5,0l5.8-5.6l5.8,5.6
			c1,0.9,2.5,0.9,3.5,0C20.2,410.4,20.2,408.9,19.3,408z"/>
	</g>
	<g id="arrow-down">
		<path fill="#C12581" d="M0.7,354l7.5,7.3c1,0.9,2.5,0.9,3.5,0l7.5-7.3c1-0.9,1-2.4,0-3.4c-1-0.9-2.5-0.9-3.5,0l-5.8,5.6l-5.8-5.6
			c-1-0.9-2.5-0.9-3.5,0C-0.2,351.6-0.2,353.1,0.7,354z"/>
	</g>
</g>
<g id="pdf">
	<g id="Page_1">
		<g id="svg1" transform="translate(1.000000, 0.000000)">
			<path id="path930" fill="#FFFFFF" d="M-0.7,300v4v4v4v4h3.5h3.5h3.5h3.5v-4v-4v-4l-3.5-4H6.3H2.8H-0.7L-0.7,300z"/>
			
				<linearGradient id="rect900_1_" gradientUnits="userSpaceOnUse" x1="-1175.6699" y1="365.1399" x2="-1176.4648" y2="365.9467" gradientTransform="matrix(14 0 0 16 16470 -5539.25)">
				<stop  offset="0" style="stop-color:#DBDADA"/>
				<stop  offset="0.3492" style="stop-color:#F3F3F3"/>
				<stop  offset="1" style="stop-color:#F2F1F0"/>
			</linearGradient>
			<path id="rect900" fill="url(#rect900_1_)" stroke="#D9DAD8" stroke-width="0.5" d="M-0.7,300v4v4v4v4h3.5h3.5h3.5h3.5v-4v-4v-4
				l-3.5-4H6.3H2.8H-0.7L-0.7,300z"/>
			
				<linearGradient id="path906_1_" gradientUnits="userSpaceOnUse" x1="-837.0222" y1="341.9363" x2="-838.0308" y2="342.7691" gradientTransform="matrix(4 0 0 4 3361 -1066.25)">
				<stop  offset="0" style="stop-color:#DBDADA"/>
				<stop  offset="0.3492" style="stop-color:#F3F3F3"/>
				<stop  offset="1" style="stop-color:#F2F1F0"/>
			</linearGradient>
			<path id="path906" fill="url(#path906_1_)" d="M14.3,304c-1.2-0.3-2.8-0.3-3.9-0.1c0.2-1.2,0.2-2.7-0.1-3.9L14.3,304L14.3,304z"
				/>
			
				<linearGradient id="path900_1_" gradientUnits="userSpaceOnUse" x1="-1153.8466" y1="363.501" x2="-1153.0996" y2="363.9893" gradientTransform="matrix(12 0 0 13 13847 -4420)">
				<stop  offset="0" style="stop-color:#DE4827"/>
				<stop  offset="1" style="stop-color:#9A1E20"/>
			</linearGradient>
			<path id="path900" fill="url(#path900_1_)" d="M6.2,301c-0.4,0-0.6,0.2-0.7,0.8c-0.2,0.6,0,1.6,0.2,2.4c0.1,0.3,0.2,0.5,0.3,0.8
				c-0.1,0.4-0.1,0.8-0.2,1.2c-0.4,1.6-0.9,3.1-1.6,4.6c-1,0.4-1.9,0.9-2.9,1.5c-0.5,0.3-1.6,1.2-0.6,1.7c0.5,0.3,1.1,0.2,1.5,0
				c0.2-0.1,0.5-0.3,0.7-0.4c0.2-0.2,0.4-0.3,0.6-0.5c0.5-0.6,0.9-1.2,1.3-1.8c1.5-0.6,3-1.1,4.6-1.5c0.7,0.5,1.6,1.1,2.4,0.5
				c0.8-0.3,0.7-1.4-0.3-1.4c-0.6-0.1-1.2,0-1.8,0.1c-0.3-0.3-0.5-0.6-0.7-0.9c-0.7-1.1-1.4-2.2-2-3.3c0.2-1,0.3-2.2,0.2-2.9
				C7,301,6.6,301,6.2,301L6.2,301z M6.4,302.1c0.1-0.1,0.4,0,0.4,0.2s-0.1,0.6-0.3,0.7C6.3,302.7,6.3,302.2,6.4,302.1L6.4,302.1z
				 M6.9,306c0.7,1,1.4,2,2.4,2.9C9,309,8.7,309,8.4,309.1c-1.1,0.3-2.1,0.6-3.1,1C6.1,308.7,6.5,307.4,6.9,306L6.9,306z M10.6,309
				c0.4,0,0.8,0.1,0.7,0.4c-0.4-0.1-0.7-0.2-1-0.3C10.4,309,10.5,309,10.6,309L10.6,309z M3.3,312c-0.1,0.1-0.1,0.3-0.2,0.4
				c-0.4,0.7-1,1.6-1.8,1.6c-0.2-0.8,0.7-1.2,1.2-1.6C2.8,312.3,3.1,312.2,3.3,312L3.3,312z"/>
		</g>
	</g>
</g>
<g id="plus">
	<rect x="4" y="250" fill="#9F2065" width="3" height="11"/>
	<rect y="254" fill="#9F2065" width="11" height="3"/>
</g>
<g id="minus">
	<rect x="36" y="200" fill="#9F2065" width="11" height="3"/>
</g>
<g id="heart-full">
	<g>
		<path fill="#AAA9A8" d="M8,103.1c-2.1-4.9-8-3.7-8,1.9c0,3.1,2.8,4.3,4.7,5.5c1.8,1.2,3.1,2.8,3.3,3.5c0.2-0.7,1.6-2.4,3.3-3.6
			c1.9-1.3,4.7-2.4,4.7-5.5C16,99.3,10,98.4,8,103.1z"/>
	</g>
</g>
<g id="heart-empty">
	<g id="Layer_2_1_">
		<g>
			<path fill="#FFFFFF" d="M8,53.1c-2.1-4.9-8-3.7-8,1.9c0,3.1,2.8,4.3,4.7,5.5C6.5,61.7,7.8,63.3,8,64c0.2-0.7,1.6-2.4,3.3-3.6
				c1.9-1.3,4.7-2.4,4.7-5.5C16,49.3,10,48.4,8,53.1z"/>
		</g>
	</g>
	<g>
		<path fill="#AAA9A8" d="M4,51L4,51c1.3,0,2.4,0.9,3.1,2.5L8,55.6l0.9-2.2C9.5,51.9,10.7,51,12,51c1.5,0,3,1.2,3,3.9
			c0,2-1.5,2.9-3.1,3.9c-0.4,0.2-0.8,0.5-1.2,0.8c-0.9,0.7-2,1.6-2.7,2.5c-0.7-0.8-1.7-1.8-2.8-2.5c-0.3-0.2-0.6-0.4-0.9-0.6
			c-2-1.2-3.3-2.1-3.3-4C1,52.3,2.6,51,4,51 M4,50c-2,0-4,1.8-4,5c0,3.1,2.8,4.3,4.7,5.5C6.5,61.7,7.8,63.3,8,64
			c0.2-0.7,1.6-2.4,3.3-3.6c1.9-1.3,4.7-2.4,4.7-5.5c0-3.2-2-4.9-4-4.9c-1.6,0-3.2,1-4,3C7.1,51,5.5,50,4,50L4,50z"/>
	</g>
</g>
<g id="email">
	<g>
		<polygon fill="#575757" points="0,0 14.9,0 14.9,1.6 7.5,5.1 0,1.7 		"/>
		<polygon fill="#575757" points="0,3.2 0,9.8 14.9,9.8 14.9,3.2 7.5,6.6 		"/>
	</g>
</g>
<g id="help-background">
	<circle fill="#A4216C" cx="39" cy="158" r="8"/>
</g>
<g id="help-question-mark">
	<g>
		<path fill="#FFFFFF" d="M37.9,159c0.1-2.5,2.7-2.2,2.7-3.5c0-0.7-0.5-1.1-1.4-1.1c-1.3,0-1.9,0.9-2,1.8c0,0-1.5,0.1-1.5-1.1
			c0-1.1,1.2-2.5,3.5-2.5c2.1,0,3.4,1.1,3.4,2.7c0,2.5-2.8,2.2-2.9,3.9c-0.1,0.3-0.4,0.4-0.9,0.4C38.3,159.8,37.9,159.5,37.9,159z
			 M37.7,161.9v-0.2c0-0.7,0.3-1,1-1H39c0.7,0,1,0.3,1,1v0.2c0,0.7-0.4,1-1,1h-0.3C38,162.9,37.7,162.5,37.7,161.9z"/>
	</g>
</g>
</svg>
