<?xml version="1.0" encoding="utf-8"?>
<!-- Generator: Adobe Illustrator 18.1.0, SVG Export Plug-In . SVG Version: 6.00 Build 0)  -->
<!DOCTYPE svg PUBLIC "-//W3C//DTD SVG 1.1//EN" "http://www.w3.org/Graphics/SVG/1.1/DTD/svg11.dtd">
<svg version="1.1" id="Layer_1" xmlns="http://www.w3.org/2000/svg" xmlns:xlink="http://www.w3.org/1999/xlink" x="0px" y="0px"
	 viewBox="0 0 346.308 125.792" enable-background="new 0 0 346.308 125.792" xml:space="preserve">
<g>
	<path fill="#604B3C" d="M144.146,53.378c-19.962,0-36.201,16.238-36.201,36.196c0,19.971,16.239,36.218,36.201,36.218
		c19.957,0,36.193-16.247,36.193-36.218C180.34,69.617,164.104,53.378,144.146,53.378z M144.146,111.835
		c-12.268,0-22.249-9.985-22.249-22.261c0-12.258,9.98-22.232,22.249-22.232c12.253,0,22.222,9.975,22.222,22.232
		C166.368,101.85,156.399,111.835,144.146,111.835z"/>
	<path fill="#604B3C" d="M68.814,67.269c7.516,0,13.629,6.137,13.629,13.68v43.704h13.882V80.904
		c0-15.178-12.341-27.525-27.511-27.525c-7.806,0-15.289,3.322-20.529,9.113l-0.111,0.123l-0.111-0.123
		c-5.236-5.791-12.697-9.113-20.471-9.113C12.378,53.378,0,65.726,0,80.904v43.749h13.935V80.949c0-7.543,6.127-13.68,13.656-13.68
		c7.506,0,13.613,6.137,13.613,13.68v43.704h13.92V80.949C55.125,73.406,61.266,67.269,68.814,67.269z"/>
	<path fill="#604B3C" d="M263.344,38.663c0-3.813-3.123-6.914-6.963-6.914c-3.831,0-6.947,3.102-6.947,6.914v22.435l-0.242-0.186
		c-6.398-4.93-14.019-7.534-22.037-7.534c-19.969,0-36.214,16.238-36.214,36.196c0,19.971,16.245,36.218,36.214,36.218
		c19.955,0,36.189-16.235,36.189-36.19V38.663z M227.154,111.835c-12.279,0-22.27-9.985-22.27-22.261
		c0-12.258,9.99-22.232,22.27-22.232c12.266,0,22.244,9.975,22.244,22.232C249.398,101.85,239.42,111.835,227.154,111.835z"/>
	<g>
		<path fill="#A70064" d="M275.371,32.876c-1.766,0-3.531-0.674-4.879-2.021l-14.197-14.197l-14.197,14.197
			c-2.695,2.693-7.063,2.693-9.758,0c-2.695-2.695-2.695-7.064,0-9.759l19.076-19.076c2.695-2.694,7.062-2.694,9.758,0
			l19.076,19.076c2.695,2.694,2.695,7.063,0,9.759C278.902,32.202,277.138,32.876,275.371,32.876z"/>
	</g>
	<path fill="#604B3C" d="M310.09,125.792c8.086,0,15.714-2.601,22.058-7.521l0.242-0.188v6.57h13.918V89.602
		c0-19.985-16.247-36.224-36.218-36.224c-19.949,0-36.178,16.238-36.178,36.196C273.912,109.545,290.141,125.792,310.09,125.792z
		 M310.09,67.342c12.274,0,22.26,9.975,22.26,22.232c0,12.275-9.985,22.261-22.26,22.261c-12.257,0-22.228-9.985-22.228-22.261
		C287.861,77.317,297.833,67.342,310.09,67.342z"/>
</g>
</svg>
